<?xml version="1.0" encoding="UTF-8"?>
<svg version="1.1" viewBox="0 0 2048 1047" width="698" height="357" xmlns="http://www.w3.org/2000/svg">
<path transform="translate(378,386)" d="m0 0h31l26 4 3 1-2 13-6 15-9 16-5 5-12 6-5 10-1 5v17l5 21 8 16 7 8 14 9 11 5 14 3h17l14-3 8-4 12-13 10-16 8-15 9-27h2l10 18 7 16 5 16 4 18 1 9v36l-5 25-9 24-8 16-9 15-9 13-13 13-17 12-16 10-25 12-15 5-22 4-12 1h-19l-19-2-20-5-21-8-19-10-13-9-21-18-7-8-12-16-9-15-8-18-7-22-4-23v-31l3-18 7-24 6-15 8-15 9-13 8-10 12-11 14-14 10-7 16-9 20-9 21-6z"/>
<path transform="translate(338,164)" d="m0 0h23l18 3 19 5 20 7 20 9 32 17 12 9 12 11 9 9 10 13 9 16 7 19 3 16 4 34 1 15v25l-2 24-5 36-6 20-11 27-12 23-13 18-5 3-7 1h-21l-12-3-10-6-9-11-6-13-3-12v-17l2-5 9-6 8-7 6-8 7-14 3-10 3-24v-33l-2-32-2-14-5-13-8-13-11-8-11-7-15-8-22-8-11-3h-12l-7 4-4 8-3 11v32l4 31 6 28 5 20-7 3-30 10-17 9-14 10-4 3-2-6-16-58-5-21-3-19-1-13v-18l4-31 6-23 9-21 7-10 7-11 11-11 16-8 13-3z"/>
<path transform="translate(1312,345)" d="m0 0h38l2 7 5 24 10 38 1 3v-71l1-1h40l1 1v192h-41l-3-8-8-29-6-26-2-14-1 77h-37z"/>
<path transform="translate(859,345)" d="m0 0h83l8 4 6 9 2 10v52l-1 10-6 9-5 2 8 3 4 5 1 2v69l-5 10-8 6-9 2h-77l-1-1zm39 32-1 2v50l1 1h21l2-1v-51l-3-1zm0 81-1 1v46h24l1-1v-40l-1-5-2-1z"/>
<path transform="translate(624,345)" d="m0 0h82l10 4 6 8 2 5 1 8v87l-2 10-6 7-8 3h-2l16 47 4 10v4h-39l-11-33-8-26v-2l-5-1v62h-40zm40 32v67h23v-66l-4-1z"/>
<path transform="translate(760,345)" d="m0 0h65l9 4 6 7 3 7v157l-3 6-6 7-8 4-4 1h-60l-8-3-8-7-4-8-1-31v-88l1-39 4-8 8-7zm22 32-2 1v127h22l1-1v-124l-2-3z"/>
<path transform="translate(1538,345)" d="m0 0h63l6 29v6h-47v45l36 1 6 3 4 5 2 4v82l-5 10-7 6-6 2h-59l-2-4-6-29v-2l47-1v-45h-34l-7-3-5-4-3-6-1-7v-70l2-8 5-8 8-5z"/>
<path transform="translate(1641,345)" d="m0 0h62l2 7 5 27-1 1-46 1-1 44 36 1 5 2 6 6 1 3v84l-4 8-5 5-11 4h-57l-4-16-3-15v-4l46-1v-44l-33-1-8-3-6-6-2-5v-80l5-10 7-6z"/>
<path transform="translate(1426,345)" d="m0 0h76l5 24 1 11h-43v47h33v32l-32 1-1 43h42l-2 13-4 20-1 2h-74z"/>
<path transform="translate(1065,345)" d="m0 0h76l6 30-1 5h-41v47h31l1 1v31l-31 1v77l-1 1h-40z"/>
<path transform="translate(1219,345)" d="m0 0h72l3 8 7 25-1 2h-26l1 18v139l-1 1h-38l-1-126v-32h-26l2-9z"/>
<path transform="translate(976,345)" d="m0 0h40v193h-40z"/>
<path transform="translate(1160,345)" d="m0 0h38v193h-38z"/>
<path transform="translate(1480,580)" d="m0 0 12 1 2 2v5l-5-2h-10l-5 3-1 1v5l3 3 3 1h9v-3h-5l-2-3 1-2h12l1 7-2 5-5 1h-12l-7-3-3-5v-7l3-5 5-3z"/>
<path transform="translate(1299,581)" d="m0 0h20l4 4v6l-3 4 4 8h-6l-5-5v-2h-7l-2 7h-5l-1-4v-17zm6 4v5l1 1h10l1-4-5-2z" fill="#090909"/>
<path transform="translate(1354,581)" d="m0 0h23v5h-11l-6-1v5l15-1 1 5-4 1h-11l-1 4h17v4h-23l-1-2v-19z" fill="#090909"/>
<path transform="translate(793,581)" d="m0 0h23l1 4-1 1h-12l-4-1v5l15-1 1 5h-16l-1 5h17l1 4h-24z"/>
<path transform="translate(735,581)" d="m0 0h5l1 7 15 2v-8l1-1h5l1 1v20l-1 1h-5l-1-8-15-1-1 9h-5l-1-4v-17z"/>
<path transform="translate(1108,580)" d="m0 0 7 1 3 3-1 5-4 4 2 2 4-1 3-3h3v5l-2 4 2 3-18 1-5-2-2-2 1-6 3-4v-6zm1 4-1 4h3l1-4zm-2 10-2 2v3l6 1-2-5z" fill="#020202"/>
<path transform="translate(1577,581)" d="m0 0h5l1 5v3h8l6 1v-9h5l1 1v21h-5l-1-1v-7l-14-1v9h-6z"/>
<path transform="translate(1409,581)" d="m0 0 7 1 5 4 7 8 3 2v-15h4v22h-6l-13-13-2 13h-5z"/>
<path transform="translate(1202,580)" d="m0 0 11 1 2 2v4l-5-1h-11v2l13 3 5 4v5l-3 3-9 1-11-1-1-5 7 1h9l1-3-12-2-5-4v-5l5-4z"/>
<path transform="translate(1e3 581)" d="m0 0h6v8h14l1-8h5v22h-5v-8h-14l-1 8h-5l-1-1z"/>
<path transform="translate(858,580)" d="m0 0 4 1 10 19v4l-6-2-5-2-7 1-3 2h-5l2-6 7-13zm1 9-2 2v4h5l-1-5z"/>
<path transform="translate(1521,581)" d="m0 0h26l-1 5-8 1-1 16h-6v-17h-9z"/>
<path transform="translate(949,581)" d="m0 0h26l-1 5h-9v17h-6v-17h-9z"/>
<path transform="translate(1246,581)" d="m0 0h24l1 3-1 2h-9v17h-6v-17h-9l-1-4z"/>
<path transform="translate(903,581)" d="m0 0h6l1 17 16 1v4h-23z"/>
</svg>
