<?xml version="1.0" encoding="UTF-8"?>
<svg version="1.1" viewBox="0 0 2048 1327" width="620" height="402" xmlns="http://www.w3.org/2000/svg">
<path transform="translate(501,602)" d="m0 0h25l23 3-1 8-6 18-7 13-10 6-4 2-3 10-1 5 1 15 2 14 4 10 9 12 10 7 12 5 7 2 16 1 12-2 10-5 8-8 12-22 8-15 5-11 1-4h2l11 24 7 19 4 19 1 11v20l-5 24-6 16-9 20-9 13-9 10-5 5-6 7-10 8-12 7-8 5-20 9-15 4-21 2h-21l-23-2-13-4-16-7-15-9-11-6-7-8-13-12-5-5-6-9-7-11-8-15-5-13-3-20-1-8v-28l3-26 6-16 7-14 9-14 6-9 10-9 9-9 4-5 14-8 13-8 14-6 9-3z" fill="#40A4C2"/>
<path transform="translate(457,413)" d="m0 0h31l24 3 20 7 40 20 15 11 7 7 7 5 9 11 8 13 6 13 5 16 5 25 2 17v33l-3 25-6 25-7 20-9 22-6 11-12 17-6 4-3 1h-20l-11-4-9-6-7-11-4-9-2-7v-18l4-4 6-4 8-9 12-24 3-14v-42l-1-17-4-15-8-17-8-9-18-12-14-7-11-3-10-2h-12l-7 3-3 11-1 7v26l4 34 3 15 4 16-1 4-24 6-11 6-14 8-8 7h-2l-5-16-11-37-5-20-1-7-1-33 2-27 6-21 8-18 14-20 9-8 12-6z" fill="#40A4C2"/>
<path transform="translate(1331,565)" d="m0 0h30l3 9 12 42 3 12h2l-1-3v-60h33v165l-1 1h-32l-5-15-12-42-1-3v59l-1 1h-29l-1-1z" fill="#FEFEFE"/>
<path transform="translate(945,565)" d="m0 0h68l7 2 6 8 2 7v54l-3 7-3 4v2l7 6 1 3v51l-2 10-4 6-4 4-13 2h-62l-1-4v-160zm32 30v43h19l1-1 1-9v-31l-1-2zm0 68v38l1 1h17l3-1v-37l-1-1z" fill="#FEFEFE"/>
<path transform="translate(744,565)" d="m0 0h69l8 3 5 4 4 8v90l-4 5-5 2h-6l17 51-1 3h-33l-5-13-10-32-2-8-3-1v53l-1 1h-33zm34 30v56l1 1h18v-57z" fill="#FEFEFE"/>
<path transform="translate(860,565)" d="m0 0h52l9 3 5 4 3 8 1 19v99l-1 17-2 7-8 7-8 2h-49l-7-3-9-8-2-8v-131l3-6 5-5 5-4zm19 30-1 11v92l1 3 8 1 10-1v-106z" fill="#FEFEFE"/>
<path transform="translate(1612,565)" d="m0 0h53l6 28v3l-42 1v36l30 1 7 3 4 5 2 8v56l-1 12-4 6-8 5-11 2h-44l-1-1-3-24v-7h37l1-37h-30l-6-4-5-7-1-6v-61l4-10 5-6z" fill="#FEFEFE"/>
<path transform="translate(1525,565)" d="m0 0h53l4 25v6l-39 1v36l31 1 4 2 4 6 2 9v56l-2 12-4 6-4 4-14 2h-42l-3-9-4-19v-3l41-1-1-36-29-1-9-5-4-6-1-10v-56l2-8 7-8z" fill="#FEFEFE"/>
<path transform="translate(1428,565)" d="m0 0h64l6 28v3h-37v39h27l1 1v27l-1 1h-27v36h35l-1 11-4 19-1 1h-62z" fill="#FEFEFE"/>
<path transform="translate(1120,565)" d="m0 0h65l3 13 3 17-1 1h-36v39h27l1 1v27l-2 1h-26v66l-1 1h-32l-1-1z" fill="#FEFEFE"/>
<path transform="translate(1252,565)" d="m0 0h62l3 15 4 13v3h-22v135h-33l-1-1v-134h-22l1-7z" fill="#FEFEFE"/>
<path transform="translate(1200,565)" d="m0 0h34v166h-33l-1-1z" fill="#FEFEFE"/>
<path transform="translate(1045,565)" d="m0 0h32v165l-1 1h-31z" fill="#FEFEFE"/>
<path transform="translate(889,767)" d="m0 0h18v11h-14l1 3 14 1-1 4h-18l-1-1v-16zm7 2-2 5 5-1 2 1 5-2-3-3z" fill="#47A7C4"/>
<path transform="translate(1367,767)" d="m0 0h18v11h-13l1 3 12 1v4h-18l-1-7zm8 2-2 1 1 4h7l3-2v-2z" fill="#4AA8C5"/>
<path transform="translate(1320,767)" d="m0 0h16l3 3v12l1 4-5-1-2-4-9-2 1 6-1 1h-5v-18zm6 3-2 1v3l2 1h8l-1-5z" fill="#43A5C3"/>
<path transform="translate(1470,767)" d="m0 0h11l4 4-1 3-4-3h-9l-3 2v6l5 3h8v-2l-5-2 1-4 6 2 2-1 1 7-3 4-3 1h-9l-7-4-3-6 1-5 5-4z" fill="#45A6C3"/>
<path transform="translate(1157,767)" d="m0 0 8 1 2 5-6-1-4-2v2l4 1 3 6h2l2-4 3 1-1 10h-7l-7 1-7-3 1-8 3-7zm-3 10 1 5 5 1 1-3-4-3z" fill="#46A6C3"/>
<path transform="translate(1413,767)" d="m0 0 8 2 5 4 4 5 2 1v-10l3-2 1 1v16l-1 2-5-1-11-11-2-1v13h-5v-18z" fill="#4AA9C5"/>
<path transform="translate(838,767)" d="m0 0 4 1 2 4 12 1 1-5h4v17l-4 1-2-7-11-1-1 8h-5z" fill="#43A5C2"/>
<path transform="translate(1069,767)" d="m0 0 3 1v5h14l1-5h4l1 2v15l-5 1-1-1v-7h-13l-1 7h-4v-17z" fill="#4FABC6"/>
<path transform="translate(1557,767)" d="m0 0h3l1 6h14l1-6 3 1v18l-4-1v-7h-13l-1 7-5 1v-18z" fill="#41A4C2"/>
<path transform="translate(1236,767)" d="m0 0h8l4 3v2l-11-1 11 5 1 7-3 3-4 1h-7l-5-2-1-4 13 1 1-3-10-3-3-2 1-5z" fill="#4BA9C5"/>
<path transform="translate(943,767)" d="m0 0 5 1 3 4 4 10 1 4-5-1-3-2h-8l-3 3h-5l1-4 7-13zm1 6-2 1-1 4 7 1-1-6z" fill="#44A6C3"/>
<path transform="translate(982,767)" d="m0 0 5 1v13l14 1-1 4h-19v-18z" fill="#41A4C2"/>
<path transform="translate(1022,768)" d="m0 0h22l-1 3h-8v14l-5 1-1-14-7-2z" fill="#4BA9C5"/>
<path transform="translate(1509,768)" d="m0 0h22l-2 3h-5l-1 15-5-1v-13l-8-1z" fill="#4BA9C5"/>
<path transform="translate(1293,767)" d="m0 0 2 1v2l-8 1v14l-4 1-1-1v-14h-7l-2-2 4-1z" fill="#47A7C4"/>
</svg>
